<svg xmlns="http://www.w3.org/2000/svg" width="154" height="20">
  <path fill="#FFF" fill-rule="evenodd" d="M136.569 12.45h4.563c.235.538.55 1.016.937 1.424a4.802 4.802 0 0 0 1.637 1.12c.634.266 1.355.4 2.142.4.808 0 1.514-.091 2.097-.273a8.482 8.482 0 0 0 1.308-.507V12.06h-3.11V8.439h7.17v9.128l-.104.055a14.089 14.089 0 0 1-3.575 1.292 18.199 18.199 0 0 1-3.786.396c-1.373 0-2.655-.218-3.815-.649a8.786 8.786 0 0 1-3.028-1.868 8.487 8.487 0 0 1-1.992-2.945 8.98 8.98 0 0 1-.444-1.398zm-110.155-.49H8.464V8.04h17.95L22.074.69h4.56L32.133 10l-5.497 9.31h-4.56l4.34-7.35zM.687 19.31V.69h3.889v14.7h12.638v3.92H.688zm31.109-2.155l2.28-3.862 3.553 6.017h-4.56l-1.273-2.155zm10.693 2.155V.69h3.889v18.62h-3.889zm48.294-14.6H85.75V.689h14.096v4.02h-5.034V19.31h-4.028V4.71zm14.409 14.601V.69h3.888v18.62h-3.888zm8.75-18.62h5.606l7.772 12.802V.69h4.12v18.62h-5.411L118.06 6.186l-.003 13.124h-4.117V.69zm-57.843 0v3.793H53.76v11.032h2.34v3.795h-4.862V.69H56.1zm19.929 0h4.86v18.62h-4.86v-3.795h2.339V4.483h-2.34V.69zm-16.39 18.62v-3.795h7.788c1.007 0 1.836-.815 1.836-1.809s-.83-1.808-1.836-1.808h-2.725c-3.139 0-5.685-2.512-5.685-5.605C59.016 3.2 61.562.69 64.7.69h8.025v3.793H64.7c-1.007 0-1.836.817-1.836 1.81 0 .991.83 1.81 1.836 1.81h2.725c3.138 0 5.685 2.509 5.685 5.603s-2.547 5.604-5.685 5.604h-7.788zm76.83-11.27c.12-.666.301-1.297.545-1.888a8.494 8.494 0 0 1 1.992-2.946 8.802 8.802 0 0 1 3.028-1.868c1.16-.43 2.442-.648 3.815-.648 1.397 0 2.704.171 3.884.51a7.735 7.735 0 0 1 3.152 1.771l.14.131-2.961 3.234-.143-.148a5.213 5.213 0 0 0-1.7-1.182c-.625-.266-1.424-.4-2.372-.4-.787 0-1.507.134-2.142.4a4.827 4.827 0 0 0-1.637 1.12 4.938 4.938 0 0 0-1.119 1.914h-4.482zM8.465 4.61V.69h8.749v3.92h-8.75zm25.61 2.097l-2.28-3.862L33.069.69h4.56l-3.552 6.017z"/>
</svg>
