<svg xmlns="http://www.w3.org/2000/svg" width="48" height="48">
  <g fill="none" fill-rule="evenodd">
    <path fill="#3D3C3B" d="M45.783 8.386l-9.674 17.18c-1.075-1.932-2.146-3.867-3.225-5.799l1.53-2.722 1.513 2.718c.112-.2 1.25-2.218 1.537-2.724-.504-.91-1.008-1.814-1.512-2.722l3.525-6.262H7.78l15.847 28.15 4.692-8.33c1.075 1.93 2.15 3.867 3.224 5.798l-4.884 8.675a3.459 3.459 0 0 1-6.064 0L1.475 8.386C.126 5.992 1.81 3 4.505 3H42.75c2.695 0 4.38 2.992 3.032 5.386"/>
    <path fill="#5856D6" d="M33.914 26.993c-.62.92-1.24 1.835-1.857 2.75a978.381 978.381 0 0 0-2.257-3.404l1.849-2.768c.755 1.14 1.514 2.283 2.265 3.422"/>
  </g>
</svg>
