<svg xmlns="http://www.w3.org/2000/svg" width="174" height="42">
  <path fill="#FFF" d="M53.179 17.202c3.29 0 5.892 1.048 7.806 3.145 1.825 2.002 2.772 4.746 2.842 8.233l.005.423-.023 1.216H47.783l.031.34c.183 1.678.77 3.027 1.76 4.046 1.056 1.071 2.41 1.607 4.064 1.607 1.285 0 2.35-.306 3.191-.919.772-.571 1.643-1.596 2.614-3.074l.21-.324 4.362 2.434-.254.423a16.77 16.77 0 0 1-1.88 2.527 11.353 11.353 0 0 1-2.412 2.02 9.667 9.667 0 0 1-2.778 1.16c-.995.245-2.074.368-3.237.368-3.337 0-6.015-1.072-8.036-3.215-2.02-2.158-3.03-5.02-3.03-8.586 0-3.536.98-6.398 2.939-8.587 1.974-2.158 4.591-3.237 7.852-3.237zm55.216-15.796v38.778h-5.188v-2.342l-.267.254c-1.97 1.82-4.184 2.73-6.644 2.73-3.061 0-5.602-1.117-7.623-3.352-2.005-2.28-3.007-5.127-3.007-8.54 0-3.337 1.002-6.123 3.007-8.357 1.99-2.25 4.493-3.375 7.508-3.375 2.508 0 4.764.984 6.766 2.952l.26.262V1.406h5.188zm17.38 15.796c3.337 0 6.169 1.14 8.495 3.42 2.296 2.281 3.444 5.082 3.444 8.404 0 3.352-1.155 6.16-3.467 8.426-2.326 2.25-5.18 3.375-8.563 3.375-3.352 0-6.161-1.148-8.426-3.444-2.266-2.266-3.398-5.113-3.398-8.541 0-3.23 1.155-5.977 3.467-8.243 2.31-2.265 5.127-3.397 8.449-3.397zm28.562 0c2.057 0 4.007.46 5.851 1.38l.394.204v6.865l-.251-.302c-1.078-1.276-2.05-2.163-2.918-2.66-.918-.551-1.997-.827-3.237-.827-1.944 0-3.559.681-4.844 2.044-1.286 1.362-1.929 3.068-1.929 5.12 0 2.096.62 3.818 1.86 5.165 1.255 1.347 2.854 2.02 4.798 2.02 1.24 0 2.334-.267 3.283-.803.858-.486 1.855-1.398 2.992-2.737l.246-.293v6.818l-.42.21c-1.957.947-3.914 1.42-5.871 1.42-3.46 0-6.352-1.117-8.679-3.352-2.326-2.25-3.49-5.043-3.49-8.38 0-3.336 1.179-6.153 3.536-8.449 2.357-2.296 5.25-3.443 8.679-3.443zm15.245 17.242c.872 0 1.622.314 2.25.941.627.628.941 1.378.941 2.25 0 .888-.314 1.646-.941 2.273-.613.612-1.363.919-2.25.919-.903 0-1.661-.307-2.273-.919-.613-.612-.919-1.377-.919-2.296 0-.857.314-1.6.942-2.227.627-.627 1.377-.941 2.25-.941zm-89.77-17.242c1.264 0 2.582.382 3.952 1.148l.318.183-2.365 4.73-.245-.169c-.894-.592-1.77-.887-2.625-.887-2.748 0-4.155 2.025-4.222 6.075l-.003.307v11.595h-5.165V17.82h5.165v1.998l.235-.242c.854-.864 1.617-1.465 2.291-1.801.75-.383 1.638-.574 2.663-.574zM40.761 1c2.568 0 4.172 2.85 2.888 5.13l-9.212 16.36-3.07-5.522 1.456-2.592 1.44 2.588 1.465-2.595-1.44-2.592 3.357-5.963H7.457L22.55 32.623l4.469-7.933 3.071 5.523-4.651 8.261a3.294 3.294 0 0 1-5.776 0L1.452 6.129C.168 3.85 1.772 1 4.339 1h36.424zm56.406 20.862c-1.775 0-3.26.674-4.454 2.02-1.178 1.363-1.768 3.047-1.768 5.052 0 2.143.574 3.887 1.722 5.234 1.179 1.363 2.664 2.044 4.454 2.044 1.914 0 3.46-.658 4.638-1.975 1.179-1.362 1.768-3.092 1.768-5.189 0-2.096-.59-3.826-1.768-5.188-1.178-1.332-2.709-1.998-4.592-1.998zm28.608 0c-1.975 0-3.574.658-4.799 1.975-1.224 1.316-1.837 3.015-1.837 5.097 0 2.234.597 4.002 1.791 5.303 1.225 1.317 2.84 1.975 4.845 1.975 2.02 0 3.635-.65 4.844-1.952 1.21-1.3 1.814-3.038 1.814-5.212 0-2.173-.605-3.91-1.814-5.211-1.225-1.317-2.84-1.975-4.844-1.975zm-97.347 1.366l1.76-2.636 2.158 3.259-1.77 2.618c-.714-1.081-1.43-2.163-2.148-3.241zm24.864-1.366c-.627 0-1.216.096-1.767.287a5.058 5.058 0 0 0-1.504.827 5.24 5.24 0 0 0-1.16 1.297 5.87 5.87 0 0 0-.644 1.406l-.09.316h10.377c-.72-2.755-2.457-4.133-5.212-4.133z"/>
</svg>
