<svg xmlns="http://www.w3.org/2000/svg" width="63" height="63">
  <g fill="#FFF" fill-rule="evenodd">
    <path fill-opacity=".6" fill-rule="nonzero" d="M8.245 48.38c-.443 1.272-1.326 2.735-2.647 4.39-1.322 1.654-2.53 2.638-3.626 2.95-.296.085-.533.064-.71-.063-.178-.128-.322-.382-.432-.764-.274-.954-.241-2.263.099-3.928.34-1.664.893-3.357 1.66-5.078.766-1.72 1.827-3.314 3.184-4.782 1.356-1.467 2.809-2.422 4.356-2.864 1.061-.304 1.779.195 2.153 1.496.249.867.173 2.306-.227 4.316a49.797 49.797 0 0 1-1.553 5.892c-.634 1.918-1.215 3.66-1.743 5.229-.528 1.568-.782 2.386-.762 2.456.278-.605.977-1.922 2.097-3.95a172.91 172.91 0 0 1 3.025-5.286 128.86 128.86 0 0 1 3.209-5.042c1.242-1.866 2.422-3.504 3.542-4.913a29.858 29.858 0 0 1 3.522-3.752c1.23-1.093 2.33-1.779 3.305-2.057.33-.095.515-.073.555.066.05.174-.32.706-1.107 1.598-.788.892-1.217 1.347-1.287 1.367-.07.02-.112.004-.127-.048-.015-.052.023-.166.114-.342.09-.176.13-.281.12-.316-.01-.035-.04-.045-.093-.03-1.06.304-2.757 1.896-5.09 4.778-2.334 2.883-4.76 6.373-7.28 10.472-2.52 4.1-4.534 7.876-6.044 11.33-.236.555-.754.947-1.554 1.176-.139.04-.216.034-.23-.018-.016-.052.054-.203.208-.454.153-.25.529-1.137 1.126-2.66.598-1.521.974-2.553 1.129-3.095.155-.542.54-1.736 1.157-3.583a206.3 206.3 0 0 0 1.56-4.838c.422-1.378.813-2.964 1.173-4.756.36-1.792.487-3.199.382-4.22-.205-.58-.629-.777-1.272-.593-.939.268-2.006 1.09-3.201 2.464a26.9 26.9 0 0 0-3.207 4.605 25.738 25.738 0 0 0-2.202 5.205c-.525 1.774-.648 3.146-.369 4.118.145.502.434.692.87.567 1.025-.293 2.071-1.122 3.137-2.488 1.066-1.365 2.004-2.933 2.812-4.703.057-.13.12-.204.19-.224.07-.02.114.005.134.075.02.07.002.168-.056.297zm9.708 1.363c-.015-.052-.057-.068-.126-.048-.47.134-1.083.75-1.84 1.849a16.238 16.238 0 0 0-1.812 3.418c.79-.526 1.64-1.445 2.552-2.757.912-1.312 1.321-2.133 1.226-2.462zm-4.26 7.863c.065.225.184.313.358.263.209-.06.637-.337 1.285-.832.648-.495 1.167-.948 1.557-1.36l2.093-2.344.123.33c-1.477 1.737-2.616 2.898-3.417 3.484-.8.585-1.349.92-1.645 1.005-.487.14-.817-.095-.992-.702-.234-.815-.173-1.715.184-2.699a8.262 8.262 0 0 1 1.498-2.596 16.866 16.866 0 0 1 1.929-1.931c.644-.541 1.158-.867 1.54-.976.383-.11.612-.034.686.226.185.642-.352 1.64-1.609 2.994-1.257 1.355-2.348 2.324-3.272 2.907-.347 1.019-.453 1.762-.318 2.23zm12.998-7.321l.276.174a74.854 74.854 0 0 0-1.605 1.782c-.41.474-.744.748-1.005.823-.383.11-.622 0-.716-.33-.07-.243-.074-.763-.011-1.56s.104-1.357.123-1.682l-.1-.056c-.07.02-.138.077-.205.171-1.353 1.908-2.216 3.177-2.59 3.81a21.877 21.877 0 0 0-1.037 1.986 219.113 219.113 0 0 0-.582 1.264c-.038.067-.208.144-.513.231-.304.087-.464.105-.479.053.02-.062.168-.367.443-.915a63.754 63.754 0 0 0 1.76-3.797l-.63.658a57.844 57.844 0 0 0-1.433 1.593l-.187-.257 1.344-1.51c.482-.55.876-1.095 1.182-1.633.306-.539.5-.96.582-1.265.082-.305.159-.561.23-.77.072-.208.16-.327.265-.357.104-.03.287-.016.548.04.05.174-.002.517-.156 1.03-.153.514-.32.983-.498 1.41l-.275.614c.01.034.024.05.041.044.052-.015.104-.063.156-.143a91.9 91.9 0 0 1 .665-.979c.39-.571.734-1.063 1.03-1.476.294-.413.65-.83 1.066-1.249.416-.419.737-.66.963-.725.226-.065.354-.045.384.059.04.138-.302.555-1.024 1.25-.162.158-.31.74-.444 1.746-.134 1.005-.142 1.715-.022 2.132.025.086.12.106.285.059.165-.047.446-.297.844-.748l1.325-1.477zm-.551 3.874c.47-.134 1.43-1.146 2.882-3.035 1.452-1.888 2.398-3.571 2.84-5.049-.036-.121-.158-.152-.366-.092-.487.139-1.209.74-2.164 1.8a19.812 19.812 0 0 0-2.511 3.492c-.718 1.266-.993 2.194-.823 2.784.025.086.072.12.142.1zm3.771-.431c-.208.06-.346-.028-.414-.262a1.754 1.754 0 0 1-.036-.764 9.47 9.47 0 0 1 .247-1.056c.161-.553.25-.963.267-1.23l-.033-.02c-2.078 2.66-3.42 4.076-4.03 4.25-.19.055-.336-.091-.436-.438-.26-.902-.182-1.862.23-2.882a8.385 8.385 0 0 1 1.774-2.717 16.24 16.24 0 0 1 2.402-2.052c.832-.576 1.561-.954 2.187-1.133 2.394-4.832 4.209-8.796 5.446-11.89.25-.635.625-1.033 1.125-1.194.156-.045.254.002.294.14.04.14-.72 1.849-2.28 5.13a570.76 570.76 0 0 0-4.635 9.997c-1.53 3.384-2.238 5.276-2.123 5.675.02.07.073.091.16.066.087-.024.393-.271.917-.74.524-.47.987-.92 1.389-1.355l2.092-2.344.124.33c-2.329 2.769-3.884 4.265-4.667 4.489zm9.046-9.09l-.008-.027c-.297.273-.562.794-.792 1.564-.23.77-.313 1.399-.248 1.887.883-1.642 1.232-2.783 1.048-3.425zm-3.993 7.025c.66-.189 1.53-1.188 2.61-2.998l-.037-.13c-.155-.538-.08-1.277.223-2.218.304-.941.64-1.586 1.01-1.936a.294.294 0 0 0-.23-.019c-.644.184-1.497 1.226-2.56 3.126-1.064 1.9-1.478 3.256-1.243 4.072.03.104.105.138.227.103zm-.913-.133c-.374-1.3.005-2.812 1.138-4.534 1.133-1.723 2.195-2.725 3.186-3.009.487-.14.793.008.917.442.354 1.231.048 2.651-.92 4.26a.991.991 0 0 0 .328-.037c.487-.139 1.104-.644 1.851-1.514l.205.222c-.898 1.064-1.635 1.679-2.208 1.843-.227.064-.404.068-.533.011a10.44 10.44 0 0 1-1.75 1.965c-.649.56-1.142.89-1.481.986-.34.097-.584-.114-.733-.635zm9.76-6.901a.913.913 0 0 1 .01-.454c.042-.18.107-.284.194-.309.086-.024.182.014.287.115.754-1.041 1.079-1.744.974-2.108-.015-.052-.066-.066-.153-.041-.556.159-1.21.768-1.959 1.827a15.234 15.234 0 0 0-1.82 3.435c-.466 1.231-.613 2.141-.444 2.731.045.156.146.212.302.167.644-.184 1.744-1.137 3.3-2.858l1.274-1.462.123.33c-.355.402-.76.856-1.218 1.362-1.658 1.826-2.878 2.85-3.66 3.074-.349.1-.627-.215-.837-.943-.21-.729-.096-1.676.34-2.843.437-1.166 1.092-2.26 1.965-3.279.874-1.019 1.755-1.656 2.642-1.91.347-.099.561-.01.64.268.11.381-.045.97-.465 1.766-.42.796-.761 1.231-1.022 1.306-.261.075-.419.017-.474-.174z"/>
    <path d="M62.707 18.747c-.315-1.501-1.296-2.782-2.6-3.584l-10.663-6.55a8.01 8.01 0 0 0-8.397 0l-10.804 6.641a5.359 5.359 0 0 0-2.445 3.493l2.685-14.882A3.908 3.908 0 0 1 34.324.646h21.838a3.908 3.908 0 0 1 3.84 3.214l2.705 14.887z"/>
    <path fill-opacity=".93" d="M46.428 24.708a1.99 1.99 0 0 0 .798-2.03 2.006 2.006 0 0 0-1.598-1.555c-1.277-.229-2.39.738-2.39 1.963 0 .653.317 1.234.806 1.598.338.25.537.643.537 1.06v13.985c0 .551-.45.998-1.007.998-.31 0-.605-.143-.795-.386L29.047 22.79c-1.082-1.378-1.533-3.188-1.066-4.875a5.266 5.266 0 0 1 2.353-3.114L41.07 8.279a8.038 8.038 0 0 1 8.34-.003l10.996 6.682c.535.324 1.014.744 1.35 1.269 1.435 2.237 1.141 4.703-.181 6.388L47.727 40.337a1.014 1.014 0 0 1-1.413.177.998.998 0 0 1-.39-.79V25.746c0-.404.173-.801.504-1.037"/>
  </g>
</svg>
