<svg height="62" width="258" xmlns="http://www.w3.org/2000/svg"><g fill="#fff" fill-rule="evenodd"><path d="m60.424 47.052c.166 3.023 1.18 5.358 3.039 7.006 1.86 1.647 4.4 2.471 7.621 2.471 2.432 0 5.081-.656 7.95-1.968 2.867-1.311 4.602-1.967 5.205-1.967.623 0 1.143.2 1.558.598.416.399.624.892.624 1.48 0 .608-.218 1.165-.655 1.668-.436.504-1.132.997-2.088 1.48a31.449 31.449 0 0 1 -6.437 2.361 27.444 27.444 0 0 1 -6.593.819c-4.738 0-8.53-1.38-11.378-4.14-2.847-2.76-4.27-6.418-4.27-10.972 0-4.64 1.507-8.396 4.52-11.272 3.013-2.875 6.94-4.313 11.783-4.313 4.384 0 8.021 1.343 10.91 4.03 2.888 2.687 4.332 5.94 4.332 9.76 0 1.175-.244 1.962-.732 2.361-.488.4-1.813.598-3.974.598zm.156-4.124h20.292c-.311-2.498-1.345-4.507-3.101-6.03-1.756-1.52-3.912-2.282-6.468-2.282-2.764 0-5.092.735-6.983 2.204-1.89 1.47-3.138 3.505-3.74 6.108zm45.635 12.846h10.348c.81 0 1.408.173 1.793.52.384.345.576.896.576 1.652 0 .86-.181 1.454-.545 1.779s-1.034.488-2.01.488h-20.387c-.81 0-1.423-.189-1.839-.567-.415-.378-.623-.944-.623-1.7 0-.735.213-1.28.639-1.637s1.086-.535 1.98-.535h5.423v-20.182h-2.12c-2.015 0-3.273-.162-3.771-.488-.5-.325-.748-.918-.748-1.779 0-.734.202-1.285.607-1.653.406-.367 1.024-.55 1.855-.55h7.107c.561 0 .987.11 1.278.33s.437.54.437.96v5.353c1.974-2.498 4.031-4.356 6.171-5.573a13.766 13.766 0 0 1 6.92-1.826c1.85 0 3.346.378 4.49 1.133 1.142.756 1.714 1.732 1.714 2.928 0 .777-.286 1.464-.858 2.063-.571.598-1.2.897-1.885.897-.478 0-1.284-.32-2.416-.96-1.133-.64-2.146-.96-3.04-.96-1.62 0-3.33.582-5.127 1.747-1.798 1.165-3.787 3.006-5.97 5.525v13.035zm50.747 4.439c-.437 0-.743-.11-.92-.33-.177-.221-.265-.646-.265-1.276v-2.582c-1.247 1.575-2.805 2.797-4.676 3.668-1.87.871-3.896 1.307-6.078 1.307-3.928 0-7.216-1.412-9.866-4.235s-3.974-6.333-3.974-10.531c0-4.345 1.413-7.96 4.24-10.846 2.825-2.887 6.348-4.33 10.566-4.33 2.14 0 4.063.384 5.767 1.15s3.169 1.894 4.395 3.384v-12.058h-1.651c-1.808 0-2.977-.163-3.507-.488-.53-.326-.795-.919-.795-1.78 0-.755.213-1.321.64-1.7.425-.377 1.044-.566 1.854-.566h6.39c.624 0 1.076.105 1.356.315s.42.535.42.976v35.483h1.404c1.018 0 1.756.173 2.213.52.457.345.686.896.686 1.652 0 .714-.198 1.27-.593 1.669-.395.398-.924.598-1.59.598h-6.015zm-20.418-14.137c0 2.897.925 5.269 2.775 7.116 1.849 1.847 4.197 2.77 7.044 2.77 2.868 0 5.227-.96 7.076-2.88 1.85-1.92 2.774-4.36 2.774-7.32 0-2.918-.92-5.321-2.758-7.21-1.84-1.89-4.203-2.834-7.092-2.834-2.93 0-5.299.955-7.107 2.865s-2.712 4.408-2.712 7.493zm49.345 10.516c3.2 0 5.823-1.023 7.87-3.07 2.047-2.046 3.07-4.654 3.07-7.823 0-3.17-1.028-5.788-3.085-7.856-2.058-2.067-4.676-3.1-7.855-3.1-3.18 0-5.793 1.033-7.84 3.1-2.047 2.068-3.07 4.686-3.07 7.856 0 3.19 1.018 5.803 3.054 7.84 2.037 2.035 4.655 3.053 7.856 3.053zm16.364-10.892c0 4.491-1.517 8.165-4.55 11.02-3.036 2.852-6.973 4.28-11.815 4.28-4.822 0-8.75-1.427-11.783-4.282-3.034-2.854-4.551-6.528-4.551-11.02 0-4.491 1.517-8.159 4.55-11.003 3.035-2.844 6.962-4.266 11.784-4.266 4.82 0 8.753 1.427 11.798 4.282 3.044 2.854 4.566 6.517 4.566 10.988zm31.328-12.689v-.125c0-.693.197-1.202.592-1.527.395-.326 1.008-.488 1.84-.488.851 0 1.438.251 1.76.755s.483 1.543.483 3.117v5.856c0 .777-.197 1.36-.592 1.748s-.987.582-1.777.582c-.56 0-1.044-.163-1.45-.488-.404-.325-.898-1.002-1.48-2.03-.997-1.7-2.208-2.986-3.631-3.858-1.424-.87-3.06-1.306-4.91-1.306-3.242 0-5.875.965-7.902 2.896-2.026 1.931-3.039 4.43-3.039 7.494 0 3.127.972 5.683 2.915 7.666 1.943 1.984 4.442 2.975 7.496 2.975 1.393 0 2.718-.194 3.975-.582a12.973 12.973 0 0 0 3.569-1.747c.395-.252.925-.64 1.59-1.165 1.35-1.113 2.41-1.67 3.18-1.67.643 0 1.168.206 1.573.615.405.41.608.94.608 1.59 0 1.658-1.553 3.353-4.66 5.085-3.107 1.731-6.406 2.597-9.897 2.597-4.51 0-8.266-1.459-11.268-4.376-3.003-2.918-4.505-6.56-4.505-10.925 0-4.366 1.497-8.013 4.489-10.941s6.733-4.392 11.222-4.392c1.58 0 3.164.215 4.753.645 1.59.43 3.279 1.097 5.066 2zm15.38 23.814c0-1.074.371-1.956 1.115-2.644.743-.689 1.708-1.033 2.894-1.033 1.214 0 2.189.337 2.925 1.012.737.675 1.105 1.563 1.105 2.665s-.372 1.99-1.115 2.666c-.743.675-1.715 1.012-2.915 1.012s-2.168-.337-2.905-1.012c-.736-.675-1.104-1.564-1.104-2.666z" fill-rule="nonzero"/><path d="m52.144 27.925c-.454-2.156-1.867-3.995-3.747-5.147-3.155-1.931-10.21-6.247-15.364-9.403a11.577 11.577 0 0 0 -12.1 0l-15.568 9.534a7.696 7.696 0 0 0 -3.522 5.016l3.87-21.367a5.625 5.625 0 0 1 5.534-4.62h31.466a5.625 5.625 0 0 1 5.534 4.613z"/><path d="m28.705 37.05a2.921 2.921 0 1 0 -3.457-.035c.49.366.778.94.778 1.55v20.455a1.46 1.46 0 0 1 -2.614.894l-19.912-25.667c-1.569-2.016-2.223-4.664-1.546-7.13a7.694 7.694 0 0 1 3.413-4.556l15.568-9.54a11.573 11.573 0 0 1 12.094-.005l15.947 9.773c.776.475 1.471 1.088 1.959 1.856 2.08 3.272 1.654 6.879-.264 9.344l-20.081 25.92a1.462 1.462 0 0 1 -2.615-.895v-20.447c0-.59.25-1.172.73-1.518" fill-opacity=".93"/></g></svg>